<?xml version="1.0" encoding="iso-8859-1"?>
<!-- Uploaded to: SVG Repo, www.svgrepo.com, Generator: SVG Repo Mixer Tools -->
<!DOCTYPE svg PUBLIC "-//W3C//DTD SVG 1.1//EN" "http://www.w3.org/Graphics/SVG/1.1/DTD/svg11.dtd">
<svg fill="#7abee6" version="1.1" id="Capa_1" xmlns="http://www.w3.org/2000/svg" xmlns:xlink="http://www.w3.org/1999/xlink" 
	 width="800px" height="800px" viewBox="0 0 387.261 387.262"
	 xml:space="preserve">
<g>
	<g>
		<path d="M358.668,206.731c-1.37-10.376-2.704-32.564,9.469-40.151c0.128-0.083,0.213-0.201,0.322-0.292
			c9.365-2.95,15.911-7.115,10.857-12.742l-136.001-40.977L23.107,143.197c0,0-25.215,3.605-22.965,42.779
			c2.253,39.181,22.965,41.885,22.965,41.885l144.106,46.831l217.505-52.689C384.724,222.003,399.283,218.246,358.668,206.731z
			 M167.679,254.032l-139.95-39.238c-0.25-0.067-0.588-0.116-0.85-0.135c-0.566-0.036-13.81-1.235-14.44-30.564
			c-0.225-10.458,1.653-18.021,5.419-21.875c2.426-2.475,5.273-2.993,7.234-2.993c1.047,0,1.793,0.143,1.845,0.143l142.3,46.399
			L167.679,254.032z M355.648,169.423c-5.991,10.775-5.736,25.629-4.756,35.147c0.22,2.174,0.469,4.152,0.707,5.645l-176.431,43.891
			l1.547-47.946l160.264-32.933l16.866-3.468l1.821-0.375C355.654,169.399,355.654,169.411,355.648,169.423z"/>
	</g>
</g>
</svg>